<?xml version="1.0" encoding="UTF-8" standalone="no"?>
<svg
   xmlns:dc="http://purl.org/dc/elements/1.1/"
   xmlns:cc="http://creativecommons.org/ns#"
   xmlns:rdf="http://www.w3.org/1999/02/22-rdf-syntax-ns#"
   xmlns:svg="http://www.w3.org/2000/svg"
   xmlns="http://www.w3.org/2000/svg"
   xmlns:sodipodi="http://sodipodi.sourceforge.net/DTD/sodipodi-0.dtd"
   xmlns:inkscape="http://www.inkscape.org/namespaces/inkscape"
   version="1.1"
   x="0px"
   y="0px"
   width="32px"
   height="32px"
   viewBox="0 0 32 32"
   enable-background="new 0 0 32 32"
   xml:space="preserve"
   id="svg2"
   >

<metadata><rdf:RDF>

   <cc:Work rdf:about="">
   <dc:format>image/svg+xml</dc:format>
   <dc:type rdf:resource="http://purl.org/dc/dcmitype/StillImage" />
   <dc:title>PICOL Icon</dc:title>
   <dc:date>2009-03-15</dc:date>
   <dc:creator><cc:Agent><dc:title>Melih Bilgil</dc:title></cc:Agent></dc:creator>
   <dc:rights><cc:Agent><dc:title>Creative Commons BY-SA</dc:title></cc:Agent></dc:rights>
   <dc:publisher><cc:Agent><dc:title>PICOL - Pictorial Communication Language</dc:title></cc:Agent></dc:publisher>
   <dc:identifier>http://blog.picol.org</dc:identifier>
   <dc:source>http://blog.picol.org</dc:source>
   <dc:language>en</dc:language>
   <dc:subject>
     <rdf:Bag>
       <rdf:li>PICOL</rdf:li>
       <rdf:li>icon</rdf:li>
       <rdf:li>icons</rdf:li>
       <rdf:li>sign</rdf:li>
       <rdf:li>GUI</rdf:li>
       <rdf:li>vector</rdf:li>
       <rdf:li>interface</rdf:li>
     </rdf:Bag>
   </dc:subject>
   <dc:description>This is one icon out of all PICOL icons</dc:description>
   <dc:contributor>
       <cc:Agent><dc:title>Melih Bilgil (www.lonja.de), Christopher Adjei (www.boffer.net)</dc:title></cc:Agent></dc:contributor>
   <cc:license rdf:resource="http://creativecommons.org/licenses/by-sa/3.0/" /></cc:Work>
   <cc:License rdf:about="http://creativecommons.org/licenses/by-sa/3.0/">
       <cc:permits rdf:resource="http://creativecommons.org/ns#Reproduction" />
       <cc:permits rdf:resource="http://creativecommons.org/ns#Distribution" />
       <cc:requires rdf:resource="http://creativecommons.org/ns#Notice" />
       <cc:requires rdf:resource="http://creativecommons.org/ns#Attribution" />
       <cc:permits rdf:resource="http://creativecommons.org/ns#DerivativeWorks" />
       <cc:requires rdf:resource="http://creativecommons.org/ns#ShareAlike" /></cc:License>

   </rdf:RDF>
</metadata>

<g id="background">
	<rect fill="none" width="32" height="32"/>
</g>
<g id="mail_x5F_add">
	<path d="M28.651,16h0.348c1.355,0.035,2.314-0.807,2.645-1.553c0.362-0.74,0.35-1.362,0.354-1.446l0.002-4
		c-0.007-0.084,0.006-0.707-0.356-1.448c-0.33-0.746-1.289-1.586-2.645-1.551C26.999,6,7,6,7,6.001
		C6.917,6.005,5.294,5.993,3.552,6.856C1.805,7.687-0.034,9.647,0,13c-0.035,3.353,1.804,5.316,3.551,6.144
		C5.294,20.008,6.917,19.996,7,20h7.523C14.19,20.939,14,21.946,14,23c0,4.971,4.027,8.998,9,9c4.971-0.002,8.998-4.029,9-9
		C31.999,20.17,30.691,17.649,28.651,16z M7,18.002c0,0-0.282,0.002-0.772-0.082c-0.742-0.119-1.841-0.439-2.688-1.152
		C2.697,16.047,2.015,15,1.999,13c0.035-2.646,1.195-3.685,2.449-4.356c0.63-0.315,1.288-0.482,1.78-0.562C6.717,8,7,8.008,7,8
		c0,0,20,0,22,0c0.646,0.035,0.686,0.195,0.856,0.449c0.063,0.13,0.107,0.286,0.126,0.404C30.002,8.97,29.993,9.001,30,9.001
		l-0.002,4c0.002,0,0.004,0.031-0.017,0.148c-0.027,0.179-0.113,0.435-0.239,0.578c-0.134,0.139-0.243,0.258-0.743,0.274
		c-0.703,0-3.138-0.001-5.997-0.001c-0.001,0-0.001,0-0.002,0s-0.001,0-0.002,0C17.728,14,11.012,14,11,14.001
		c-0.647-0.035-0.686-0.195-0.855-0.447c-0.066-0.132-0.109-0.288-0.127-0.405C9.996,13.032,10.007,13,9.999,13
		c0.035-0.646,0.195-0.685,0.449-0.854c0.13-0.066,0.287-0.109,0.404-0.128S11,12.008,11,12.002h16v-2H11
		c-0.083,0.004-0.707-0.008-1.446,0.354C8.806,10.686,7.965,11.648,8,13c0.004,0.084-0.008,0.706,0.354,1.446
		C8.684,15.193,9.646,16.035,11,16c0,0,2.88,0,6.348,0c-0.707,0.571-1.326,1.245-1.833,2.002H7z M23,29.883
		c-3.801-0.009-6.876-3.084-6.885-6.883c0.009-3.801,3.084-6.876,6.885-6.884c3.799,0.008,6.874,3.083,6.883,6.884
		C29.874,26.799,26.799,29.874,23,29.883z"/>
	<g>
		<polygon points="28,22 24,22 24,18 22,18 22,22 18,22 18,24 22,24 22,28 24,28 24,24 28,24 		"/>
	</g>
</g>
</svg>
