<?xml version="1.0" encoding="UTF-8" standalone="no"?>
<svg
   xmlns:dc="http://purl.org/dc/elements/1.1/"
   xmlns:cc="http://creativecommons.org/ns#"
   xmlns:rdf="http://www.w3.org/1999/02/22-rdf-syntax-ns#"
   xmlns:svg="http://www.w3.org/2000/svg"
   xmlns="http://www.w3.org/2000/svg"
   xmlns:sodipodi="http://sodipodi.sourceforge.net/DTD/sodipodi-0.dtd"
   xmlns:inkscape="http://www.inkscape.org/namespaces/inkscape"
   version="1.1"
   x="0px"
   y="0px"
   width="32px"
   height="32px"
   viewBox="0 0 32 32"
   enable-background="new 0 0 32 32"
   xml:space="preserve"
   id="svg2"
   >

<metadata><rdf:RDF>

   <cc:Work rdf:about="">
   <dc:format>image/svg+xml</dc:format>
   <dc:type rdf:resource="http://purl.org/dc/dcmitype/StillImage" />
   <dc:title>PICOL Icon</dc:title>
   <dc:date>2009-03-15</dc:date>
   <dc:creator><cc:Agent><dc:title>Melih Bilgil</dc:title></cc:Agent></dc:creator>
   <dc:rights><cc:Agent><dc:title>Creative Commons BY-SA</dc:title></cc:Agent></dc:rights>
   <dc:publisher><cc:Agent><dc:title>PICOL - Pictorial Communication Language</dc:title></cc:Agent></dc:publisher>
   <dc:identifier>http://blog.picol.org</dc:identifier>
   <dc:source>http://blog.picol.org</dc:source>
   <dc:language>en</dc:language>
   <dc:subject>
     <rdf:Bag>
       <rdf:li>PICOL</rdf:li>
       <rdf:li>icon</rdf:li>
       <rdf:li>icons</rdf:li>
       <rdf:li>sign</rdf:li>
       <rdf:li>GUI</rdf:li>
       <rdf:li>vector</rdf:li>
       <rdf:li>interface</rdf:li>
     </rdf:Bag>
   </dc:subject>
   <dc:description>This is one icon out of all PICOL icons</dc:description>
   <dc:contributor>
       <cc:Agent><dc:title>Melih Bilgil (www.lonja.de), Christopher Adjei (www.boffer.net)</dc:title></cc:Agent></dc:contributor>
   <cc:license rdf:resource="http://creativecommons.org/licenses/by-sa/3.0/" /></cc:Work>
   <cc:License rdf:about="http://creativecommons.org/licenses/by-sa/3.0/">
       <cc:permits rdf:resource="http://creativecommons.org/ns#Reproduction" />
       <cc:permits rdf:resource="http://creativecommons.org/ns#Distribution" />
       <cc:requires rdf:resource="http://creativecommons.org/ns#Notice" />
       <cc:requires rdf:resource="http://creativecommons.org/ns#Attribution" />
       <cc:permits rdf:resource="http://creativecommons.org/ns#DerivativeWorks" />
       <cc:requires rdf:resource="http://creativecommons.org/ns#ShareAlike" /></cc:License>

   </rdf:RDF>
</metadata>

<g id="background">
	<rect fill="none" width="32" height="32"/>
</g>
<g id="mail">
	<path d="M7,20c-0.083-0.004-1.706,0.008-3.448-0.855l0,0C1.805,18.316-0.034,16.354,0,13l0,0c-0.035-3.353,1.804-5.314,3.551-6.144
		l0,0C5.294,5.993,6.917,6.005,7,6.001l0,0c0-0.002,20-0.002,22,0l0,0c1.355-0.035,2.314,0.806,2.645,1.551l0,0
		c0.362,0.742,0.35,1.364,0.356,1.448l0,0l-0.002,4c-0.005,0.084,0.008,0.706-0.354,1.446l0,0c-0.33,0.747-1.289,1.588-2.645,1.553
		l0,0c-2,0-18,0-18,0l0,0c-1.354,0.035-2.315-0.807-2.645-1.553l0,0C7.992,13.707,8.004,13.084,8,13l0,0
		c-0.035-1.353,0.805-2.314,1.553-2.645l0,0c0.739-0.362,1.363-0.35,1.446-0.354l0,0h16v2H11c0,0.006-0.031-0.002-0.148,0.016l0,0
		c-0.117,0.019-0.274,0.062-0.404,0.128l0,0c-0.253,0.169-0.414,0.208-0.449,0.854l0,0c0.008,0-0.002,0.031,0.019,0.148l0,0
		c0.019,0.117,0.062,0.273,0.127,0.405l0,0c0.169,0.252,0.208,0.412,0.855,0.447l0,0c0.019-0.002,16-0.002,18,0l0,0
		c0.5-0.017,0.609-0.136,0.743-0.274l0,0c0.126-0.144,0.212-0.399,0.239-0.578l0,0C30.002,13.032,30,13,29.998,13l0,0l0.002-4
		c-0.007,0,0.002-0.031-0.019-0.148l0,0c-0.019-0.118-0.062-0.274-0.126-0.404l0,0C29.685,8.195,29.646,8.035,28.999,8l0,0
		c-2,0-22,0-22,0l0,0c0,0.008-0.282,0-0.772,0.082l0,0c-0.492,0.081-1.149,0.247-1.78,0.562l0,0C3.193,9.316,2.034,10.354,1.999,13
		l0,0c0.017,2,0.698,3.046,1.541,3.767l0,0c0.847,0.713,1.946,1.033,2.688,1.152l0,0C6.717,18.004,7,18.002,7,18.002l0,0h22V20H7
		L7,20z"/>
</g>
</svg>
