<?xml version="1.0" encoding="UTF-8" standalone="no"?>
<svg
   xmlns:dc="http://purl.org/dc/elements/1.1/"
   xmlns:cc="http://creativecommons.org/ns#"
   xmlns:rdf="http://www.w3.org/1999/02/22-rdf-syntax-ns#"
   xmlns:svg="http://www.w3.org/2000/svg"
   xmlns="http://www.w3.org/2000/svg"
   xmlns:sodipodi="http://sodipodi.sourceforge.net/DTD/sodipodi-0.dtd"
   xmlns:inkscape="http://www.inkscape.org/namespaces/inkscape"
   version="1.1"
   x="0px"
   y="0px"
   width="32px"
   height="32px"
   viewBox="0 0 32 32"
   enable-background="new 0 0 32 32"
   xml:space="preserve"
   id="svg2"
   >

<metadata><rdf:RDF>

   <cc:Work rdf:about="">
   <dc:format>image/svg+xml</dc:format>
   <dc:type rdf:resource="http://purl.org/dc/dcmitype/StillImage" />
   <dc:title>PICOL Icon</dc:title>
   <dc:date>2009-03-15</dc:date>
   <dc:creator><cc:Agent><dc:title>Melih Bilgil</dc:title></cc:Agent></dc:creator>
   <dc:rights><cc:Agent><dc:title>Creative Commons BY-SA</dc:title></cc:Agent></dc:rights>
   <dc:publisher><cc:Agent><dc:title>PICOL - Pictorial Communication Language</dc:title></cc:Agent></dc:publisher>
   <dc:identifier>http://blog.picol.org</dc:identifier>
   <dc:source>http://blog.picol.org</dc:source>
   <dc:language>en</dc:language>
   <dc:subject>
     <rdf:Bag>
       <rdf:li>PICOL</rdf:li>
       <rdf:li>icon</rdf:li>
       <rdf:li>icons</rdf:li>
       <rdf:li>sign</rdf:li>
       <rdf:li>GUI</rdf:li>
       <rdf:li>vector</rdf:li>
       <rdf:li>interface</rdf:li>
     </rdf:Bag>
   </dc:subject>
   <dc:description>This is one icon out of all PICOL icons</dc:description>
   <dc:contributor>
       <cc:Agent><dc:title>Melih Bilgil (www.lonja.de), Christopher Adjei (www.boffer.net)</dc:title></cc:Agent></dc:contributor>
   <cc:license rdf:resource="http://creativecommons.org/licenses/by-sa/3.0/" /></cc:Work>
   <cc:License rdf:about="http://creativecommons.org/licenses/by-sa/3.0/">
       <cc:permits rdf:resource="http://creativecommons.org/ns#Reproduction" />
       <cc:permits rdf:resource="http://creativecommons.org/ns#Distribution" />
       <cc:requires rdf:resource="http://creativecommons.org/ns#Notice" />
       <cc:requires rdf:resource="http://creativecommons.org/ns#Attribution" />
       <cc:permits rdf:resource="http://creativecommons.org/ns#DerivativeWorks" />
       <cc:requires rdf:resource="http://creativecommons.org/ns#ShareAlike" /></cc:License>

   </rdf:RDF>
</metadata>

<g id="background">
	<rect fill="none" width="32" height="32"/>
</g>
<g id="cd_x5F_eject">
	<path d="M32,15.999C31.998,7.164,24.838,0.002,16,0C7.164,0.002,0.002,7.164,0,15.999C0.002,24.838,7.164,31.998,16,32
		c1.38,0,2.712-0.195,3.987-0.527C20.931,31.807,21.941,32,23,32c4.971,0,8.998-4.029,8.998-9c0-1.057-0.19-2.068-0.525-3.01
		C31.806,18.713,32,17.381,32,15.999z M16,29.998C8.268,29.986,2.015,23.732,2,15.999C2.015,8.267,8.268,2.015,16,2
		c7.733,0.015,13.986,6.267,13.999,13.999c-0.001,0.427-0.026,0.848-0.065,1.265C28.283,15.271,25.79,14,23,14
		c-0.449,0-0.887,0.044-1.318,0.107C20.889,11.723,18.65,10,16,10c-3.314,0-5.999,2.685-5.999,5.999
		c0,2.651,1.722,4.889,4.106,5.682C14.044,22.113,14,22.551,14,23c0,2.791,1.27,5.283,3.262,6.934
		C16.846,29.973,16.426,29.998,16,29.998z M17.946,15.553C17.742,14.665,16.95,14,16.001,14c-1.104,0-2,0.896-2,2
		c0,0.949,0.664,1.742,1.552,1.945c-0.374,0.551-0.681,1.146-0.927,1.773C13.1,19.158,12.004,17.721,12.001,16
		C12.005,13.79,13.791,12.004,16,12c1.722,0.003,3.159,1.099,3.72,2.625C19.092,14.872,18.496,15.179,17.946,15.553z M23,30
		c-3.865-0.008-6.994-3.135-7-7c0.006-3.865,3.135-6.994,7-7c3.864,0.006,6.991,3.134,6.999,7C29.991,26.865,26.864,29.992,23,30z"
		/>
	<polygon points="19,22 27,22 23,18 	"/>
	<rect x="19" y="24" width="8" height="2"/>
</g>
</svg>
