<?xml version="1.0" encoding="UTF-8" standalone="no"?>
<svg
   xmlns:dc="http://purl.org/dc/elements/1.1/"
   xmlns:cc="http://creativecommons.org/ns#"
   xmlns:rdf="http://www.w3.org/1999/02/22-rdf-syntax-ns#"
   xmlns:svg="http://www.w3.org/2000/svg"
   xmlns="http://www.w3.org/2000/svg"
   xmlns:sodipodi="http://sodipodi.sourceforge.net/DTD/sodipodi-0.dtd"
   xmlns:inkscape="http://www.inkscape.org/namespaces/inkscape"
   version="1.1"
   x="0px"
   y="0px"
   width="32px"
   height="32px"
   viewBox="0 0 32 32"
   enable-background="new 0 0 32 32"
   xml:space="preserve"
   id="svg2"
   >

<metadata><rdf:RDF>

   <cc:Work rdf:about="">
   <dc:format>image/svg+xml</dc:format>
   <dc:type rdf:resource="http://purl.org/dc/dcmitype/StillImage" />
   <dc:title>PICOL Icon</dc:title>
   <dc:date>2009-03-15</dc:date>
   <dc:creator><cc:Agent><dc:title>Melih Bilgil</dc:title></cc:Agent></dc:creator>
   <dc:rights><cc:Agent><dc:title>Creative Commons BY-SA</dc:title></cc:Agent></dc:rights>
   <dc:publisher><cc:Agent><dc:title>PICOL - Pictorial Communication Language</dc:title></cc:Agent></dc:publisher>
   <dc:identifier>http://blog.picol.org</dc:identifier>
   <dc:source>http://blog.picol.org</dc:source>
   <dc:language>en</dc:language>
   <dc:subject>
     <rdf:Bag>
       <rdf:li>PICOL</rdf:li>
       <rdf:li>icon</rdf:li>
       <rdf:li>icons</rdf:li>
       <rdf:li>sign</rdf:li>
       <rdf:li>GUI</rdf:li>
       <rdf:li>vector</rdf:li>
       <rdf:li>interface</rdf:li>
     </rdf:Bag>
   </dc:subject>
   <dc:description>This is one icon out of all PICOL icons</dc:description>
   <dc:contributor>
       <cc:Agent><dc:title>Melih Bilgil (www.lonja.de), Christopher Adjei (www.boffer.net)</dc:title></cc:Agent></dc:contributor>
   <cc:license rdf:resource="http://creativecommons.org/licenses/by-sa/3.0/" /></cc:Work>
   <cc:License rdf:about="http://creativecommons.org/licenses/by-sa/3.0/">
       <cc:permits rdf:resource="http://creativecommons.org/ns#Reproduction" />
       <cc:permits rdf:resource="http://creativecommons.org/ns#Distribution" />
       <cc:requires rdf:resource="http://creativecommons.org/ns#Notice" />
       <cc:requires rdf:resource="http://creativecommons.org/ns#Attribution" />
       <cc:permits rdf:resource="http://creativecommons.org/ns#DerivativeWorks" />
       <cc:requires rdf:resource="http://creativecommons.org/ns#ShareAlike" /></cc:License>

   </rdf:RDF>
</metadata>

<g id="background">
	<rect fill="none" width="32" height="32"/>
</g>
<g id="cooler">
	<path d="M24,20c6,0,8-2,8-2c0-4-2-6-2-6c-2.752,1.835-5.918,2.822-8.547,3.36c0.97-0.464,2-1.157,3.031-2.188
		c4.244-4.243,4.244-7.071,4.244-7.071c-2.83-2.828-5.658-2.828-5.658-2.828c-0.648,3.243-2.188,6.18-3.667,8.418
		C19.761,10.676,20,9.458,20,8c0-6-2-8-2-8c-4,0-6,2-6,2c1.835,2.753,2.823,5.919,3.36,8.548c-0.464-0.971-1.157-2.001-2.189-3.034
		C8.929,3.272,6.101,3.272,6.101,3.272C3.272,6.101,3.272,8.929,3.272,8.929c3.244,0.649,6.18,2.189,8.419,3.668
		C10.677,12.239,9.458,12,8,12c-6,0-8,2-8,2c0,4,2,6,2,6c2.753-1.835,5.919-2.822,8.548-3.36c-0.971,0.465-2.001,1.157-3.034,2.189
		c-4.243,4.242-4.243,7.07-4.243,7.07c2.829,2.828,5.657,2.828,5.657,2.828c0.649-3.243,2.189-6.181,3.668-8.42
		C12.239,21.322,12,22.541,12,24c0,6,2,8,2,8c4,0,6-2,6-2c-1.835-2.752-2.822-5.918-3.36-8.547c0.464,0.971,1.157,2.001,2.188,3.032
		c4.242,4.242,7.07,4.242,7.07,4.242c2.83-2.828,2.83-5.656,2.83-5.656c-3.245-0.648-6.183-2.189-8.422-3.669
		C21.321,19.761,22.541,20,24,20z M16,16L16,16L16,16L16,16L16,16z M16,16L16,16L16,16L16,16L16,16z M16,16L16,16L16,16L16,16L16,16
		z M16,16L16,16L16,16L16,16L16,16z"/>
</g>
</svg>
