<?xml version="1.0" encoding="UTF-8" standalone="no"?>
<svg
   xmlns:dc="http://purl.org/dc/elements/1.1/"
   xmlns:cc="http://creativecommons.org/ns#"
   xmlns:rdf="http://www.w3.org/1999/02/22-rdf-syntax-ns#"
   xmlns:svg="http://www.w3.org/2000/svg"
   xmlns="http://www.w3.org/2000/svg"
   xmlns:sodipodi="http://sodipodi.sourceforge.net/DTD/sodipodi-0.dtd"
   xmlns:inkscape="http://www.inkscape.org/namespaces/inkscape"
   version="1.1"
   x="0px"
   y="0px"
   width="32px"
   height="32px"
   viewBox="0 0 32 32"
   enable-background="new 0 0 32 32"
   xml:space="preserve"
   id="svg2"
   >

<metadata><rdf:RDF>

   <cc:Work rdf:about="">
   <dc:format>image/svg+xml</dc:format>
   <dc:type rdf:resource="http://purl.org/dc/dcmitype/StillImage" />
   <dc:title>PICOL Icon</dc:title>
   <dc:date>2009-03-15</dc:date>
   <dc:creator><cc:Agent><dc:title>Melih Bilgil</dc:title></cc:Agent></dc:creator>
   <dc:rights><cc:Agent><dc:title>Creative Commons BY-SA</dc:title></cc:Agent></dc:rights>
   <dc:publisher><cc:Agent><dc:title>PICOL - Pictorial Communication Language</dc:title></cc:Agent></dc:publisher>
   <dc:identifier>http://blog.picol.org</dc:identifier>
   <dc:source>http://blog.picol.org</dc:source>
   <dc:language>en</dc:language>
   <dc:subject>
     <rdf:Bag>
       <rdf:li>PICOL</rdf:li>
       <rdf:li>icon</rdf:li>
       <rdf:li>icons</rdf:li>
       <rdf:li>sign</rdf:li>
       <rdf:li>GUI</rdf:li>
       <rdf:li>vector</rdf:li>
       <rdf:li>interface</rdf:li>
     </rdf:Bag>
   </dc:subject>
   <dc:description>This is one icon out of all PICOL icons</dc:description>
   <dc:contributor>
       <cc:Agent><dc:title>Melih Bilgil (www.lonja.de), Christopher Adjei (www.boffer.net)</dc:title></cc:Agent></dc:contributor>
   <cc:license rdf:resource="http://creativecommons.org/licenses/by-sa/3.0/" /></cc:Work>
   <cc:License rdf:about="http://creativecommons.org/licenses/by-sa/3.0/">
       <cc:permits rdf:resource="http://creativecommons.org/ns#Reproduction" />
       <cc:permits rdf:resource="http://creativecommons.org/ns#Distribution" />
       <cc:requires rdf:resource="http://creativecommons.org/ns#Notice" />
       <cc:requires rdf:resource="http://creativecommons.org/ns#Attribution" />
       <cc:permits rdf:resource="http://creativecommons.org/ns#DerivativeWorks" />
       <cc:requires rdf:resource="http://creativecommons.org/ns#ShareAlike" /></cc:License>

   </rdf:RDF>
</metadata>

<g id="background">
	<rect fill="none" width="32" height="32"/>
</g>
<g id="download_x5F_settings">
	<path d="M22,8h-4V2h-4v6h-4l6,6L22,8z M23,14c-2.143,0-4.106,0.751-5.652,2H2v8h12.059C14.557,28.5,18.367,32,23,32
		c4.971,0,9-4.028,9-8.999C32,18.029,27.971,14,23,14z M8,22.001H4v-2h4V22.001z M23,30c-3.865-0.008-6.994-3.135-7-6.999
		c0.006-3.865,3.135-6.995,7-7c3.864,0.006,6.991,3.135,6.999,7C29.991,26.865,26.864,29.992,23,30z"/>
	<path d="M28,24v-2.001h-1.663c-0.063-0.212-0.145-0.413-0.245-0.606l1.187-1.187l-1.416-1.415l-1.165,1.166
		c-0.22-0.123-0.452-0.221-0.697-0.294V18h-2v1.662c-0.229,0.068-0.446,0.158-0.652,0.27l-1.141-1.14l-1.415,1.415l1.14,1.14
		c-0.112,0.207-0.202,0.424-0.271,0.653H18v2h1.662c0.073,0.246,0.172,0.479,0.295,0.698l-1.165,1.163l1.413,1.416l1.188-1.187
		c0.192,0.101,0.394,0.182,0.605,0.245V28H24v-1.665c0.229-0.068,0.445-0.158,0.651-0.27l1.212,1.212l1.414-1.416l-1.212-1.21
		c0.111-0.206,0.201-0.423,0.27-0.651H28z M22.999,24.499c-0.829-0.002-1.498-0.671-1.501-1.5c0.003-0.829,0.672-1.498,1.501-1.501
		c0.829,0.003,1.498,0.672,1.5,1.501C24.497,23.828,23.828,24.497,22.999,24.499z"/>
</g>
</svg>
