<?xml version="1.0" encoding="UTF-8" standalone="no"?>
<svg
   xmlns:dc="http://purl.org/dc/elements/1.1/"
   xmlns:cc="http://creativecommons.org/ns#"
   xmlns:rdf="http://www.w3.org/1999/02/22-rdf-syntax-ns#"
   xmlns:svg="http://www.w3.org/2000/svg"
   xmlns="http://www.w3.org/2000/svg"
   xmlns:sodipodi="http://sodipodi.sourceforge.net/DTD/sodipodi-0.dtd"
   xmlns:inkscape="http://www.inkscape.org/namespaces/inkscape"
   version="1.1"
   x="0px"
   y="0px"
   width="32px"
   height="32px"
   viewBox="0 0 32 32"
   enable-background="new 0 0 32 32"
   xml:space="preserve"
   id="svg2"
   >

<metadata><rdf:RDF>

   <cc:Work rdf:about="">
   <dc:format>image/svg+xml</dc:format>
   <dc:type rdf:resource="http://purl.org/dc/dcmitype/StillImage" />
   <dc:title>PICOL Icon</dc:title>
   <dc:date>2009-03-15</dc:date>
   <dc:creator><cc:Agent><dc:title>Melih Bilgil</dc:title></cc:Agent></dc:creator>
   <dc:rights><cc:Agent><dc:title>Creative Commons BY-SA</dc:title></cc:Agent></dc:rights>
   <dc:publisher><cc:Agent><dc:title>PICOL - Pictorial Communication Language</dc:title></cc:Agent></dc:publisher>
   <dc:identifier>http://blog.picol.org</dc:identifier>
   <dc:source>http://blog.picol.org</dc:source>
   <dc:language>en</dc:language>
   <dc:subject>
     <rdf:Bag>
       <rdf:li>PICOL</rdf:li>
       <rdf:li>icon</rdf:li>
       <rdf:li>icons</rdf:li>
       <rdf:li>sign</rdf:li>
       <rdf:li>GUI</rdf:li>
       <rdf:li>vector</rdf:li>
       <rdf:li>interface</rdf:li>
     </rdf:Bag>
   </dc:subject>
   <dc:description>This is one icon out of all PICOL icons</dc:description>
   <dc:contributor>
       <cc:Agent><dc:title>Melih Bilgil (www.lonja.de), Christopher Adjei (www.boffer.net)</dc:title></cc:Agent></dc:contributor>
   <cc:license rdf:resource="http://creativecommons.org/licenses/by-sa/3.0/" /></cc:Work>
   <cc:License rdf:about="http://creativecommons.org/licenses/by-sa/3.0/">
       <cc:permits rdf:resource="http://creativecommons.org/ns#Reproduction" />
       <cc:permits rdf:resource="http://creativecommons.org/ns#Distribution" />
       <cc:requires rdf:resource="http://creativecommons.org/ns#Notice" />
       <cc:requires rdf:resource="http://creativecommons.org/ns#Attribution" />
       <cc:permits rdf:resource="http://creativecommons.org/ns#DerivativeWorks" />
       <cc:requires rdf:resource="http://creativecommons.org/ns#ShareAlike" /></cc:License>

   </rdf:RDF>
</metadata>

<g id="background">
	<rect fill="none" width="32" height="32"/>
</g>
<g id="filter_x5F_settings">
	<rect x="16" width="4" height="6"/>
	<polygon points="30,9 26,5 26,8 2,8 2,10.001 26,10.001 26,13 	"/>
	<polygon points="10,16 2,16 2,17.999 10,17.999 10,21 14,17 10,13 	"/>
	<path d="M28,24v-2.002h-1.663c-0.063-0.211-0.145-0.412-0.245-0.605l1.187-1.188l-1.416-1.414l-1.165,1.166
		c-0.22-0.123-0.452-0.221-0.697-0.295V18h-2v1.662c-0.229,0.068-0.446,0.158-0.652,0.27l-1.141-1.141l-1.415,1.416l1.14,1.139
		c-0.112,0.207-0.202,0.424-0.271,0.654H18v2h1.662c0.073,0.246,0.172,0.479,0.295,0.697l-1.165,1.164l1.413,1.416l1.188-1.188
		c0.192,0.102,0.394,0.182,0.605,0.246V28H24v-1.666c0.229-0.068,0.445-0.158,0.651-0.27l1.212,1.213l1.414-1.416l-1.212-1.211
		c0.111-0.205,0.201-0.422,0.27-0.65H28z M22.999,24.498c-0.829-0.002-1.498-0.67-1.501-1.5c0.003-0.828,0.672-1.498,1.501-1.5
		c0.829,0.002,1.498,0.672,1.5,1.5C24.497,23.828,23.828,24.496,22.999,24.498z"/>
	<path d="M23,14c-1.054,0-2.061,0.19-3,0.522V12h-4v5.347c-1.249,1.546-2,3.511-2,5.653c0,2.142,0.751,4.106,2,5.651V32h4v-0.523
		C20.939,31.809,21.946,32,23,32c4.971-0.002,8.998-4.029,9-9C31.998,18.027,27.971,14,23,14z M23,29.883
		c-3.801-0.01-6.876-3.084-6.885-6.883c0.009-3.801,3.084-6.876,6.885-6.885c3.799,0.008,6.874,3.084,6.883,6.885
		C29.874,26.799,26.799,29.873,23,29.883z"/>
</g>
</svg>
