<?xml version="1.0" encoding="UTF-8" standalone="no"?>
<svg
   xmlns:dc="http://purl.org/dc/elements/1.1/"
   xmlns:cc="http://creativecommons.org/ns#"
   xmlns:rdf="http://www.w3.org/1999/02/22-rdf-syntax-ns#"
   xmlns:svg="http://www.w3.org/2000/svg"
   xmlns="http://www.w3.org/2000/svg"
   xmlns:sodipodi="http://sodipodi.sourceforge.net/DTD/sodipodi-0.dtd"
   xmlns:inkscape="http://www.inkscape.org/namespaces/inkscape"
   version="1.1"
   x="0px"
   y="0px"
   width="32px"
   height="32px"
   viewBox="0 0 32 32"
   enable-background="new 0 0 32 32"
   xml:space="preserve"
   id="svg2"
   >

<metadata><rdf:RDF>

   <cc:Work rdf:about="">
   <dc:format>image/svg+xml</dc:format>
   <dc:type rdf:resource="http://purl.org/dc/dcmitype/StillImage" />
   <dc:title>PICOL Icon</dc:title>
   <dc:date>2009-03-15</dc:date>
   <dc:creator><cc:Agent><dc:title>Melih Bilgil</dc:title></cc:Agent></dc:creator>
   <dc:rights><cc:Agent><dc:title>Creative Commons BY-SA</dc:title></cc:Agent></dc:rights>
   <dc:publisher><cc:Agent><dc:title>PICOL - Pictorial Communication Language</dc:title></cc:Agent></dc:publisher>
   <dc:identifier>http://blog.picol.org</dc:identifier>
   <dc:source>http://blog.picol.org</dc:source>
   <dc:language>en</dc:language>
   <dc:subject>
     <rdf:Bag>
       <rdf:li>PICOL</rdf:li>
       <rdf:li>icon</rdf:li>
       <rdf:li>icons</rdf:li>
       <rdf:li>sign</rdf:li>
       <rdf:li>GUI</rdf:li>
       <rdf:li>vector</rdf:li>
       <rdf:li>interface</rdf:li>
     </rdf:Bag>
   </dc:subject>
   <dc:description>This is one icon out of all PICOL icons</dc:description>
   <dc:contributor>
       <cc:Agent><dc:title>Melih Bilgil (www.lonja.de), Christopher Adjei (www.boffer.net)</dc:title></cc:Agent></dc:contributor>
   <cc:license rdf:resource="http://creativecommons.org/licenses/by-sa/3.0/" /></cc:Work>
   <cc:License rdf:about="http://creativecommons.org/licenses/by-sa/3.0/">
       <cc:permits rdf:resource="http://creativecommons.org/ns#Reproduction" />
       <cc:permits rdf:resource="http://creativecommons.org/ns#Distribution" />
       <cc:requires rdf:resource="http://creativecommons.org/ns#Notice" />
       <cc:requires rdf:resource="http://creativecommons.org/ns#Attribution" />
       <cc:permits rdf:resource="http://creativecommons.org/ns#DerivativeWorks" />
       <cc:requires rdf:resource="http://creativecommons.org/ns#ShareAlike" /></cc:License>

   </rdf:RDF>
</metadata>

<g id="background">
	<rect x="0" y="0" fill="none" width="32" height="32"/>
</g>
<g id="earth">
	<path d="M15.999,0C7.164,0.002,0.002,7.164,0,15.999c0.002,8.838,7.164,16,15.999,16.001c8.838-0.002,16-7.163,16.001-16.001
		C31.999,7.164,24.837,0.002,15.999,0z M2.052,17.001H7.04C7.111,18.86,7.366,20.528,7.76,22H3.373
		C2.642,20.466,2.182,18.783,2.052,17.001z M17,8.002V2.212c0.941,0.705,2.991,2.501,4.433,5.791H17z M22.169,10.001
		c0.428,1.437,0.714,3.105,0.795,5H17v-5H22.169z M14.546,2.565C14.72,2.421,14.868,2.307,15,2.209v5.793h-4.438
		c0.528-1.203,1.137-2.208,1.743-3.033C13.125,3.855,13.943,3.068,14.546,2.565z M15,10.001v5H9.04c0.081-1.904,0.374-3.563,0.805-5
		H15z M7.04,15.001H2.052c0.129-1.781,0.588-3.466,1.319-5h4.389C7.366,11.474,7.111,13.143,7.04,15.001z M9.035,17.001H15V22H9.83
		C9.402,20.564,9.116,18.896,9.035,17.001z M15,24.001v5.789c-0.94-0.704-2.991-2.499-4.433-5.789H15z M17.453,29.436
		C17.28,29.58,17.131,29.693,17,29.792v-5.79h4.437c-0.527,1.202-1.137,2.206-1.743,3.031
		C18.875,28.145,18.056,28.934,17.453,29.436z M17,22v-4.999h5.959c-0.081,1.903-0.374,3.562-0.804,4.999H17z M24.96,17.001h4.986
		c-0.129,1.781-0.589,3.465-1.32,4.999H24.24C24.633,20.528,24.888,18.86,24.96,17.001z M24.96,15.001
		c-0.072-1.859-0.326-3.527-0.721-5h4.388c0.731,1.534,1.191,3.219,1.319,5H24.96z M27.473,8.002h-3.889
		c-0.881-2.28-2.037-4.012-3.116-5.255C23.332,3.714,25.777,5.574,27.473,8.002z M11.531,2.747
		c-1.078,1.244-2.235,2.976-3.115,5.255H4.527C6.224,5.574,8.669,3.714,11.531,2.747z M4.53,24.001h3.887
		c0.879,2.276,2.034,4.007,3.112,5.25C8.669,28.285,6.226,26.427,4.53,24.001z M20.47,29.251c1.078-1.243,2.233-2.974,3.113-5.25
		h3.887C25.774,26.427,23.331,28.285,20.47,29.251z"/>
</g>
</svg>
