<?xml version="1.0" encoding="UTF-8" standalone="no"?>
<svg
   xmlns:dc="http://purl.org/dc/elements/1.1/"
   xmlns:cc="http://creativecommons.org/ns#"
   xmlns:rdf="http://www.w3.org/1999/02/22-rdf-syntax-ns#"
   xmlns:svg="http://www.w3.org/2000/svg"
   xmlns="http://www.w3.org/2000/svg"
   xmlns:sodipodi="http://sodipodi.sourceforge.net/DTD/sodipodi-0.dtd"
   xmlns:inkscape="http://www.inkscape.org/namespaces/inkscape"
   version="1.1"
   x="0px"
   y="0px"
   width="32px"
   height="32px"
   viewBox="0 0 32 32"
   enable-background="new 0 0 32 32"
   xml:space="preserve"
   id="svg2"
   >

<metadata><rdf:RDF>

   <cc:Work rdf:about="">
   <dc:format>image/svg+xml</dc:format>
   <dc:type rdf:resource="http://purl.org/dc/dcmitype/StillImage" />
   <dc:title>PICOL Icon</dc:title>
   <dc:date>2009-03-15</dc:date>
   <dc:creator><cc:Agent><dc:title>Melih Bilgil</dc:title></cc:Agent></dc:creator>
   <dc:rights><cc:Agent><dc:title>Creative Commons BY-SA</dc:title></cc:Agent></dc:rights>
   <dc:publisher><cc:Agent><dc:title>PICOL - Pictorial Communication Language</dc:title></cc:Agent></dc:publisher>
   <dc:identifier>http://blog.picol.org</dc:identifier>
   <dc:source>http://blog.picol.org</dc:source>
   <dc:language>en</dc:language>
   <dc:subject>
     <rdf:Bag>
       <rdf:li>PICOL</rdf:li>
       <rdf:li>icon</rdf:li>
       <rdf:li>icons</rdf:li>
       <rdf:li>sign</rdf:li>
       <rdf:li>GUI</rdf:li>
       <rdf:li>vector</rdf:li>
       <rdf:li>interface</rdf:li>
     </rdf:Bag>
   </dc:subject>
   <dc:description>This is one icon out of all PICOL icons</dc:description>
   <dc:contributor>
       <cc:Agent><dc:title>Melih Bilgil (www.lonja.de), Christopher Adjei (www.boffer.net)</dc:title></cc:Agent></dc:contributor>
   <cc:license rdf:resource="http://creativecommons.org/licenses/by-sa/3.0/" /></cc:Work>
   <cc:License rdf:about="http://creativecommons.org/licenses/by-sa/3.0/">
       <cc:permits rdf:resource="http://creativecommons.org/ns#Reproduction" />
       <cc:permits rdf:resource="http://creativecommons.org/ns#Distribution" />
       <cc:requires rdf:resource="http://creativecommons.org/ns#Notice" />
       <cc:requires rdf:resource="http://creativecommons.org/ns#Attribution" />
       <cc:permits rdf:resource="http://creativecommons.org/ns#DerivativeWorks" />
       <cc:requires rdf:resource="http://creativecommons.org/ns#ShareAlike" /></cc:License>

   </rdf:RDF>
</metadata>

<g id="backbord">
	<rect fill="none" width="32" height="32"/>
</g>
<g id="group_x5F_full_x5F_security">
	<path d="M22.38,7.519c0.065,0.035,0.134,0.068,0.194,0.105C23,7.856,23.48,8,24,8c1.657,0,3-1.343,3-3s-1.343-3-3-3s-3,1.343-3,3
		C21,6.059,21.552,6.985,22.38,7.519z M8,20c0-2,0-10,0-10s0.005-0.45,0.239-1C6.16,9,4,9,4,9s-2,0-2,2v7c0,2,2,2,2,2v10h6v-8
		C10,22,8,22,8,20z M16,8c1.657,0,3-1.343,3-3s-1.343-3-3-3s-3,1.343-3,3S14.343,8,16,8z M8,8c0.52,0,1.001-0.144,1.427-0.376
		c0.059-0.036,0.125-0.068,0.188-0.103C10.446,6.988,11,6.061,11,5c0-1.657-1.343-3-3-3S5,3.343,5,5S6.343,8,8,8z M30,17.35
		c0-2.261,0-6.35,0-6.35s0-2-2-2h-4.238C23.995,9.55,24,10,24,10s0,1.888,0,4.059C23.671,14.022,23.338,14,23,14
		s-0.671,0.022-1,0.059C22,12.427,22,11,22,11s0-2-2-2c-0.5,0-8,0-8,0s-2,0-2,2v7c0,2,2,2,2,2v10h5.35
		c1.545,1.248,3.509,1.999,5.65,1.999c4.971,0,8.999-4.028,8.999-8.999C31.999,20.858,31.248,18.895,30,17.35z M23,29.999
		c-3.865-0.008-6.994-3.135-7-6.999c0.006-3.865,3.135-6.994,7-7c3.864,0.006,6.991,3.135,6.999,7
		C29.991,26.864,26.864,29.991,23,29.999z"/>
	<path d="M26.144,22c0.008-0.131,0.014-0.267,0.014-0.409c-0.006-0.678-0.088-1.492-0.556-2.259
		c-0.457-0.779-1.438-1.36-2.602-1.333c-1.165-0.027-2.148,0.554-2.605,1.333c-0.47,0.767-0.552,1.581-0.556,2.259
		c0,0.143,0.006,0.278,0.014,0.409H19v5h8v-5H26.144z M21.837,21.591c-0.004-0.478,0.093-0.958,0.254-1.198
		c0.173-0.227,0.27-0.366,0.909-0.394c0.637,0.027,0.73,0.165,0.904,0.394c0.162,0.24,0.259,0.723,0.253,1.198
		c0,0.145-0.008,0.28-0.019,0.409h-2.282C21.846,21.869,21.837,21.732,21.837,21.591z"/>
</g>
</svg>
