<?xml version="1.0" encoding="UTF-8" standalone="no"?>
<svg
   xmlns:dc="http://purl.org/dc/elements/1.1/"
   xmlns:cc="http://creativecommons.org/ns#"
   xmlns:rdf="http://www.w3.org/1999/02/22-rdf-syntax-ns#"
   xmlns:svg="http://www.w3.org/2000/svg"
   xmlns="http://www.w3.org/2000/svg"
   xmlns:sodipodi="http://sodipodi.sourceforge.net/DTD/sodipodi-0.dtd"
   xmlns:inkscape="http://www.inkscape.org/namespaces/inkscape"
   version="1.1"
   x="0px"
   y="0px"
   width="32px"
   height="32px"
   viewBox="0 0 32 32"
   enable-background="new 0 0 32 32"
   xml:space="preserve"
   id="svg2"
   >

<metadata><rdf:RDF>

   <cc:Work rdf:about="">
   <dc:format>image/svg+xml</dc:format>
   <dc:type rdf:resource="http://purl.org/dc/dcmitype/StillImage" />
   <dc:title>PICOL Icon</dc:title>
   <dc:date>2009-03-15</dc:date>
   <dc:creator><cc:Agent><dc:title>Melih Bilgil</dc:title></cc:Agent></dc:creator>
   <dc:rights><cc:Agent><dc:title>Creative Commons BY-SA</dc:title></cc:Agent></dc:rights>
   <dc:publisher><cc:Agent><dc:title>PICOL - Pictorial Communication Language</dc:title></cc:Agent></dc:publisher>
   <dc:identifier>http://blog.picol.org</dc:identifier>
   <dc:source>http://blog.picol.org</dc:source>
   <dc:language>en</dc:language>
   <dc:subject>
     <rdf:Bag>
       <rdf:li>PICOL</rdf:li>
       <rdf:li>icon</rdf:li>
       <rdf:li>icons</rdf:li>
       <rdf:li>sign</rdf:li>
       <rdf:li>GUI</rdf:li>
       <rdf:li>vector</rdf:li>
       <rdf:li>interface</rdf:li>
     </rdf:Bag>
   </dc:subject>
   <dc:description>This is one icon out of all PICOL icons</dc:description>
   <dc:contributor>
       <cc:Agent><dc:title>Melih Bilgil (www.lonja.de), Christopher Adjei (www.boffer.net)</dc:title></cc:Agent></dc:contributor>
   <cc:license rdf:resource="http://creativecommons.org/licenses/by-sa/3.0/" /></cc:Work>
   <cc:License rdf:about="http://creativecommons.org/licenses/by-sa/3.0/">
       <cc:permits rdf:resource="http://creativecommons.org/ns#Reproduction" />
       <cc:permits rdf:resource="http://creativecommons.org/ns#Distribution" />
       <cc:requires rdf:resource="http://creativecommons.org/ns#Notice" />
       <cc:requires rdf:resource="http://creativecommons.org/ns#Attribution" />
       <cc:permits rdf:resource="http://creativecommons.org/ns#DerivativeWorks" />
       <cc:requires rdf:resource="http://creativecommons.org/ns#ShareAlike" /></cc:License>

   </rdf:RDF>
</metadata>

<g id="background">
	<rect fill="none" width="32" height="32"/>
</g>
<g id="network_x5F_wireless_x5F_security">
	<path d="M29.967,17.305c-0.167-3.86-1.706-7.672-4.653-10.619C22.189,3.562,18.095,2,14,2v2c3.568,0.012,7.133,1.422,9.855,4.144
		c2.044,2.044,3.335,4.563,3.862,7.202c-0.712-0.439-1.486-0.782-2.312-1.011c-0.563-1.765-1.529-3.431-2.921-4.821
		C20.153,7.182,17.055,6.011,14,6v2c2.543,0.011,5.13,0.987,7.071,2.929c0.908,0.908,1.601,1.958,2.085,3.079
		C23.104,14.007,23.053,14,23,14c-0.678,0-1.335,0.081-1.97,0.223c-0.358-0.677-0.81-1.315-1.374-1.88
		C18.105,10.792,16.031,10.011,14,10v2c1.52,0.011,3.082,0.597,4.242,1.757c0.345,0.345,0.631,0.729,0.872,1.134
		c-0.496,0.238-0.966,0.518-1.406,0.839C17.232,14.709,16.202,14,15,14c-1.656,0-3,1.343-3,3c0,1.304,0.838,2.403,2,2.817v6.367
		c-0.098,0.035-0.193,0.072-0.286,0.116L5.7,18.286C5.887,17.896,6,17.463,6,17c0-1.657-1.343-3-3-3s-3,1.343-3,3
		c0,1.305,0.837,2.403,2,2.816v6.367C0.837,26.597,0,27.695,0,29c0,1.657,1.343,3,3,3s3-1.343,3-3c0-1.305-0.837-2.403-2-2.816
		v-6.367c0.098-0.035,0.193-0.072,0.285-0.116l8.015,8.015C12.113,28.105,12,28.538,12,29c0,1.657,1.344,3,3,3
		c1.202,0,2.232-0.709,2.708-1.731C19.194,31.352,21.02,31.999,23,32c4.971-0.002,8.998-4.029,9-9
		C31.999,20.838,31.236,18.855,29.967,17.305z M23,29.883c-3.801-0.009-6.876-3.084-6.884-6.883
		c0.008-3.801,3.083-6.876,6.884-6.884c3.799,0.008,6.874,3.083,6.883,6.884C29.874,26.799,26.799,29.874,23,29.883z"/>
	<path d="M26.144,22c0.008-0.131,0.014-0.267,0.014-0.409c-0.006-0.678-0.088-1.492-0.556-2.259
		c-0.457-0.779-1.438-1.36-2.602-1.333c-1.165-0.027-2.148,0.554-2.605,1.333c-0.47,0.767-0.552,1.581-0.556,2.259
		c0,0.143,0.006,0.278,0.014,0.409H19v5h8v-5H26.144z M21.837,21.591c-0.004-0.478,0.093-0.958,0.254-1.198
		c0.173-0.227,0.27-0.366,0.909-0.394c0.637,0.027,0.73,0.165,0.904,0.394c0.162,0.24,0.259,0.723,0.253,1.198
		c0,0.145-0.008,0.28-0.019,0.409h-2.282C21.846,21.869,21.837,21.732,21.837,21.591z"/>
</g>
</svg>
