<?xml version="1.0" encoding="UTF-8" standalone="no"?>
<svg
   xmlns:dc="http://purl.org/dc/elements/1.1/"
   xmlns:cc="http://creativecommons.org/ns#"
   xmlns:rdf="http://www.w3.org/1999/02/22-rdf-syntax-ns#"
   xmlns:svg="http://www.w3.org/2000/svg"
   xmlns="http://www.w3.org/2000/svg"
   xmlns:sodipodi="http://sodipodi.sourceforge.net/DTD/sodipodi-0.dtd"
   xmlns:inkscape="http://www.inkscape.org/namespaces/inkscape"
   version="1.1"
   x="0px"
   y="0px"
   width="32px"
   height="32px"
   viewBox="0 0 32 32"
   enable-background="new 0 0 32 32"
   xml:space="preserve"
   id="svg2"
   >

<metadata><rdf:RDF>

   <cc:Work rdf:about="">
   <dc:format>image/svg+xml</dc:format>
   <dc:type rdf:resource="http://purl.org/dc/dcmitype/StillImage" />
   <dc:title>PICOL Icon</dc:title>
   <dc:date>2009-03-15</dc:date>
   <dc:creator><cc:Agent><dc:title>Melih Bilgil</dc:title></cc:Agent></dc:creator>
   <dc:rights><cc:Agent><dc:title>Creative Commons BY-SA</dc:title></cc:Agent></dc:rights>
   <dc:publisher><cc:Agent><dc:title>PICOL - Pictorial Communication Language</dc:title></cc:Agent></dc:publisher>
   <dc:identifier>http://blog.picol.org</dc:identifier>
   <dc:source>http://blog.picol.org</dc:source>
   <dc:language>en</dc:language>
   <dc:subject>
     <rdf:Bag>
       <rdf:li>PICOL</rdf:li>
       <rdf:li>icon</rdf:li>
       <rdf:li>icons</rdf:li>
       <rdf:li>sign</rdf:li>
       <rdf:li>GUI</rdf:li>
       <rdf:li>vector</rdf:li>
       <rdf:li>interface</rdf:li>
     </rdf:Bag>
   </dc:subject>
   <dc:description>This is one icon out of all PICOL icons</dc:description>
   <dc:contributor>
       <cc:Agent><dc:title>Melih Bilgil (www.lonja.de), Christopher Adjei (www.boffer.net)</dc:title></cc:Agent></dc:contributor>
   <cc:license rdf:resource="http://creativecommons.org/licenses/by-sa/3.0/" /></cc:Work>
   <cc:License rdf:about="http://creativecommons.org/licenses/by-sa/3.0/">
       <cc:permits rdf:resource="http://creativecommons.org/ns#Reproduction" />
       <cc:permits rdf:resource="http://creativecommons.org/ns#Distribution" />
       <cc:requires rdf:resource="http://creativecommons.org/ns#Notice" />
       <cc:requires rdf:resource="http://creativecommons.org/ns#Attribution" />
       <cc:permits rdf:resource="http://creativecommons.org/ns#DerivativeWorks" />
       <cc:requires rdf:resource="http://creativecommons.org/ns#ShareAlike" /></cc:License>

   </rdf:RDF>
</metadata>

<g id="background">
	<rect fill="none" width="32" height="32"/>
</g>
<g id="owl_x5F_dl_x5F_document">
	<path d="M22.414,0H4v32h24V5.584L22.414,0z M21.998,2.413L25.586,6h-3.588V2.413z M6,30V1.998h14v6.001h6V30H6z"/>
	<path d="M22,20.184v-4.367c1.163-0.413,2-1.512,2-2.817c0-1.656-1.345-3-3.002-3s-2.999,1.344-2.999,3
		c0,0.125,0.021,0.244,0.037,0.364l-4.959,2.48c-0.54-0.52-1.27-0.843-2.078-0.843c-1.658,0-3,1.343-3,3s1.342,3,3,3
		c0.809,0,1.54-0.324,2.08-0.844l4.958,2.479C18.021,22.757,18,22.875,18,23c0,1.656,1.342,2.998,2.998,3c1.658-0.002,3-1.344,3-3
		C23.998,21.696,23.163,20.597,22,20.184z M20.999,10.999c1.105,0.002,1.998,0.896,2,2c-0.002,1.104-0.895,1.998-2,2
		c-1.106-0.002-1.998-0.896-2-2C19.001,11.895,19.893,11.001,20.999,10.999z M20.999,25c-1.105-0.004-1.998-0.896-2.001-2
		c0.003-1.105,0.896-1.999,2.001-2.001C22.104,21.001,22.998,21.895,23,23C22.998,24.104,22.104,24.996,20.999,25z"/>
</g>
</svg>
