<?xml version="1.0" encoding="UTF-8" standalone="no"?>
<svg
   xmlns:dc="http://purl.org/dc/elements/1.1/"
   xmlns:cc="http://creativecommons.org/ns#"
   xmlns:rdf="http://www.w3.org/1999/02/22-rdf-syntax-ns#"
   xmlns:svg="http://www.w3.org/2000/svg"
   xmlns="http://www.w3.org/2000/svg"
   xmlns:sodipodi="http://sodipodi.sourceforge.net/DTD/sodipodi-0.dtd"
   xmlns:inkscape="http://www.inkscape.org/namespaces/inkscape"
   version="1.1"
   x="0px"
   y="0px"
   width="32px"
   height="32px"
   viewBox="0 0 32 32"
   enable-background="new 0 0 32 32"
   xml:space="preserve"
   id="svg2"
   >

<metadata><rdf:RDF>

   <cc:Work rdf:about="">
   <dc:format>image/svg+xml</dc:format>
   <dc:type rdf:resource="http://purl.org/dc/dcmitype/StillImage" />
   <dc:title>PICOL Icon</dc:title>
   <dc:date>2009-03-15</dc:date>
   <dc:creator><cc:Agent><dc:title>Melih Bilgil</dc:title></cc:Agent></dc:creator>
   <dc:rights><cc:Agent><dc:title>Creative Commons BY-SA</dc:title></cc:Agent></dc:rights>
   <dc:publisher><cc:Agent><dc:title>PICOL - Pictorial Communication Language</dc:title></cc:Agent></dc:publisher>
   <dc:identifier>http://blog.picol.org</dc:identifier>
   <dc:source>http://blog.picol.org</dc:source>
   <dc:language>en</dc:language>
   <dc:subject>
     <rdf:Bag>
       <rdf:li>PICOL</rdf:li>
       <rdf:li>icon</rdf:li>
       <rdf:li>icons</rdf:li>
       <rdf:li>sign</rdf:li>
       <rdf:li>GUI</rdf:li>
       <rdf:li>vector</rdf:li>
       <rdf:li>interface</rdf:li>
     </rdf:Bag>
   </dc:subject>
   <dc:description>This is one icon out of all PICOL icons</dc:description>
   <dc:contributor>
       <cc:Agent><dc:title>Melih Bilgil (www.lonja.de), Christopher Adjei (www.boffer.net)</dc:title></cc:Agent></dc:contributor>
   <cc:license rdf:resource="http://creativecommons.org/licenses/by-sa/3.0/" /></cc:Work>
   <cc:License rdf:about="http://creativecommons.org/licenses/by-sa/3.0/">
       <cc:permits rdf:resource="http://creativecommons.org/ns#Reproduction" />
       <cc:permits rdf:resource="http://creativecommons.org/ns#Distribution" />
       <cc:requires rdf:resource="http://creativecommons.org/ns#Notice" />
       <cc:requires rdf:resource="http://creativecommons.org/ns#Attribution" />
       <cc:permits rdf:resource="http://creativecommons.org/ns#DerivativeWorks" />
       <cc:requires rdf:resource="http://creativecommons.org/ns#ShareAlike" /></cc:License>

   </rdf:RDF>
</metadata>

<g id="background">
	<rect fill="none" width="32" height="32"/>
</g>
<g id="paragraph">
	<path d="M20.999,16c-0.005-0.216-0.021-1.304-0.764-2.619c-0.726-1.317-2.289-2.73-4.752-3.323
		c-1.537-0.407-1.975-0.994-2.249-1.428c-0.127-0.222-0.189-0.428-0.216-0.559C13.008,8.022,13.003,7.985,13,7.963
		c0.074-1.256,0.392-1.337,0.893-1.675c0.261-0.132,0.576-0.216,0.811-0.253c0.115-0.019,0.212-0.029,0.265-0.033
		C14.984,6.001,14.996,6,15.004,6c1.288,0.068,1.366,0.387,1.705,0.895c0.134,0.259,0.216,0.576,0.255,0.808
		c0.019,0.118,0.029,0.212,0.033,0.268C17,7.998,17,8.016,17,8.022L17.646,8h3.354c-0.011-0.167,0.014-1.413-0.712-2.895
		C19.629,3.611,17.707,1.931,15,2.001c-0.167,0.01-1.413-0.015-2.895,0.709C10.612,3.371,8.932,5.292,9,8
		c0.004,0.216,0.021,1.304,0.763,2.617c0.214,0.388,0.51,0.782,0.871,1.163c-0.407,0.426-0.727,0.882-0.924,1.326
		c-0.723,1.482-0.7,2.728-0.71,2.895c0.004,0.214,0.021,1.303,0.764,2.617c0.727,1.316,2.29,2.73,4.75,3.322
		c1.539,0.407,1.977,0.994,2.249,1.427c0.128,0.223,0.189,0.431,0.218,0.56c0.009,0.046,0.015,0.082,0.017,0.105
		c-0.071,1.262-0.39,1.341-0.892,1.681c-0.261,0.132-0.577,0.214-0.809,0.251c-0.118,0.021-0.212,0.03-0.268,0.033
		c-0.021,0.001-0.038,0.002-0.046,0.003c-1.276-0.072-1.355-0.389-1.694-0.895c-0.132-0.26-0.216-0.575-0.253-0.81
		c-0.021-0.115-0.029-0.212-0.033-0.266C13,24.004,13,23.988,13,23.98v-0.003L12.333,24H8.999c0.011,0.165-0.012,1.411,0.71,2.894
		c0.648,1.463,2.505,3.107,5.127,3.107c0.054,0,0.108-0.001,0.164-0.002c0.167-0.011,1.413,0.014,2.893-0.711
		c1.493-0.659,3.176-2.582,3.105-5.288c-0.004-0.218-0.021-1.306-0.762-2.619c-0.214-0.388-0.51-0.781-0.871-1.162
		c0.406-0.427,0.727-0.883,0.922-1.326C21.013,17.411,20.988,16.167,20.999,16z M13.237,16.633c-0.13-0.223-0.189-0.428-0.218-0.56
		c-0.01-0.045-0.015-0.081-0.018-0.104c0.013-0.181,0.101-0.775,0.339-1.171c0.303-0.411,0.43-0.692,1.429-0.78
		c1.324,0.402,1.738,0.942,1.995,1.348c0.127,0.225,0.189,0.43,0.216,0.562c0.01,0.046,0.017,0.083,0.019,0.105
		c-0.014,0.186-0.101,0.773-0.338,1.168c-0.305,0.412-0.432,0.694-1.435,0.779C13.905,17.578,13.492,17.038,13.237,16.633z"/>
</g>
</svg>
