<?xml version="1.0" encoding="UTF-8" standalone="no"?>
<svg
   xmlns:dc="http://purl.org/dc/elements/1.1/"
   xmlns:cc="http://creativecommons.org/ns#"
   xmlns:rdf="http://www.w3.org/1999/02/22-rdf-syntax-ns#"
   xmlns:svg="http://www.w3.org/2000/svg"
   xmlns="http://www.w3.org/2000/svg"
   xmlns:sodipodi="http://sodipodi.sourceforge.net/DTD/sodipodi-0.dtd"
   xmlns:inkscape="http://www.inkscape.org/namespaces/inkscape"
   version="1.1"
   x="0px"
   y="0px"
   width="32px"
   height="32px"
   viewBox="0 0 32 32"
   enable-background="new 0 0 32 32"
   xml:space="preserve"
   id="svg2"
   >

<metadata><rdf:RDF>

   <cc:Work rdf:about="">
   <dc:format>image/svg+xml</dc:format>
   <dc:type rdf:resource="http://purl.org/dc/dcmitype/StillImage" />
   <dc:title>PICOL Icon</dc:title>
   <dc:date>2009-03-15</dc:date>
   <dc:creator><cc:Agent><dc:title>Melih Bilgil</dc:title></cc:Agent></dc:creator>
   <dc:rights><cc:Agent><dc:title>Creative Commons BY-SA</dc:title></cc:Agent></dc:rights>
   <dc:publisher><cc:Agent><dc:title>PICOL - Pictorial Communication Language</dc:title></cc:Agent></dc:publisher>
   <dc:identifier>http://blog.picol.org</dc:identifier>
   <dc:source>http://blog.picol.org</dc:source>
   <dc:language>en</dc:language>
   <dc:subject>
     <rdf:Bag>
       <rdf:li>PICOL</rdf:li>
       <rdf:li>icon</rdf:li>
       <rdf:li>icons</rdf:li>
       <rdf:li>sign</rdf:li>
       <rdf:li>GUI</rdf:li>
       <rdf:li>vector</rdf:li>
       <rdf:li>interface</rdf:li>
     </rdf:Bag>
   </dc:subject>
   <dc:description>This is one icon out of all PICOL icons</dc:description>
   <dc:contributor>
       <cc:Agent><dc:title>Melih Bilgil (www.lonja.de), Christopher Adjei (www.boffer.net)</dc:title></cc:Agent></dc:contributor>
   <cc:license rdf:resource="http://creativecommons.org/licenses/by-sa/3.0/" /></cc:Work>
   <cc:License rdf:about="http://creativecommons.org/licenses/by-sa/3.0/">
       <cc:permits rdf:resource="http://creativecommons.org/ns#Reproduction" />
       <cc:permits rdf:resource="http://creativecommons.org/ns#Distribution" />
       <cc:requires rdf:resource="http://creativecommons.org/ns#Notice" />
       <cc:requires rdf:resource="http://creativecommons.org/ns#Attribution" />
       <cc:permits rdf:resource="http://creativecommons.org/ns#DerivativeWorks" />
       <cc:requires rdf:resource="http://creativecommons.org/ns#ShareAlike" /></cc:License>

   </rdf:RDF>
</metadata>

<g id="background">
	<rect fill="none" width="32" height="32"/>
</g>
<g id="social_x5F_network">
	<g>
		<g>
			<path d="M16,28v4h12c0,0,0-2,0-4s-2-2-2-2h-4h-4C16,26,16,28,16,28z M4,16H0v12c0,0,2,0,4,0s2-2,2-2v-4v-4C6,16,4,16,4,16z M16,4
				V0H4c0,0,0,2,0,4s2,2,2,2h4h4C16,6,16,4,16,4z M28,4c-2,0-2,2-2,2v4v4c0,2,2,2,2,2h4V4C32,4,30,4,28,4z M22,6
				c-2.209,0-4,1.791-4,4c0,1.861,1.278,3.412,3,3.858v4.283c-0.363,0.094-0.704,0.238-1.021,0.424l-6.545-6.545
				C13.785,11.425,14,10.74,14,10c0-2.209-1.791-4-4-4s-4,1.791-4,4c0,1.861,1.278,3.412,3,3.858v4.283C7.278,18.588,6,20.139,6,22
				c0,2.209,1.791,4,4,4s4-1.791,4-4c0-1.861-1.278-3.412-3-3.858v-4.283c0.364-0.094,0.705-0.238,1.021-0.425l6.545,6.546
				C18.215,20.574,18,21.259,18,22c0,2.209,1.791,4,4,4s4-1.791,4-4c0-1.861-1.278-3.412-3-3.858v-4.283
				c1.722-0.446,3-1.997,3-3.858C26,7.791,24.209,6,22,6z"/>
		</g>
	</g>
</g>
</svg>
