<?xml version="1.0" encoding="UTF-8" standalone="no"?>
<svg
   xmlns:dc="http://purl.org/dc/elements/1.1/"
   xmlns:cc="http://creativecommons.org/ns#"
   xmlns:rdf="http://www.w3.org/1999/02/22-rdf-syntax-ns#"
   xmlns:svg="http://www.w3.org/2000/svg"
   xmlns="http://www.w3.org/2000/svg"
   xmlns:sodipodi="http://sodipodi.sourceforge.net/DTD/sodipodi-0.dtd"
   xmlns:inkscape="http://www.inkscape.org/namespaces/inkscape"
   version="1.1"
   x="0px"
   y="0px"
   width="32px"
   height="32px"
   viewBox="0 0 32 32"
   enable-background="new 0 0 32 32"
   xml:space="preserve"
   id="svg2"
   >

<metadata><rdf:RDF>

   <cc:Work rdf:about="">
   <dc:format>image/svg+xml</dc:format>
   <dc:type rdf:resource="http://purl.org/dc/dcmitype/StillImage" />
   <dc:title>PICOL Icon</dc:title>
   <dc:date>2009-03-15</dc:date>
   <dc:creator><cc:Agent><dc:title>Melih Bilgil</dc:title></cc:Agent></dc:creator>
   <dc:rights><cc:Agent><dc:title>Creative Commons BY-SA</dc:title></cc:Agent></dc:rights>
   <dc:publisher><cc:Agent><dc:title>PICOL - Pictorial Communication Language</dc:title></cc:Agent></dc:publisher>
   <dc:identifier>http://blog.picol.org</dc:identifier>
   <dc:source>http://blog.picol.org</dc:source>
   <dc:language>en</dc:language>
   <dc:subject>
     <rdf:Bag>
       <rdf:li>PICOL</rdf:li>
       <rdf:li>icon</rdf:li>
       <rdf:li>icons</rdf:li>
       <rdf:li>sign</rdf:li>
       <rdf:li>GUI</rdf:li>
       <rdf:li>vector</rdf:li>
       <rdf:li>interface</rdf:li>
     </rdf:Bag>
   </dc:subject>
   <dc:description>This is one icon out of all PICOL icons</dc:description>
   <dc:contributor>
       <cc:Agent><dc:title>Melih Bilgil (www.lonja.de), Christopher Adjei (www.boffer.net)</dc:title></cc:Agent></dc:contributor>
   <cc:license rdf:resource="http://creativecommons.org/licenses/by-sa/3.0/" /></cc:Work>
   <cc:License rdf:about="http://creativecommons.org/licenses/by-sa/3.0/">
       <cc:permits rdf:resource="http://creativecommons.org/ns#Reproduction" />
       <cc:permits rdf:resource="http://creativecommons.org/ns#Distribution" />
       <cc:requires rdf:resource="http://creativecommons.org/ns#Notice" />
       <cc:requires rdf:resource="http://creativecommons.org/ns#Attribution" />
       <cc:permits rdf:resource="http://creativecommons.org/ns#DerivativeWorks" />
       <cc:requires rdf:resource="http://creativecommons.org/ns#ShareAlike" /></cc:License>

   </rdf:RDF>
</metadata>

<g id="background">
	<rect fill="none" width="32" height="32"/>
</g>
<g id="speaker_x5F_louder">
	<polygon points="16,4 16,28 10,22 2,22 2,10 10,10 	"/>
	<path d="M25.313,4.687l-1.446,1.447c2.515,2.531,4.07,6.017,4.07,9.867c0,3.851-1.556,7.336-4.07,9.867l1.446,1.446
		C28.209,24.418,30,20.418,30,16S28.209,7.582,25.313,4.687z"/>
	<path d="M22.515,7.547l-1.414,1.415C22.892,10.77,24,13.255,24,16s-1.108,5.23-2.899,7.038l1.414,1.414
		C24.668,22.283,26,19.298,26,16S24.668,9.717,22.515,7.547z"/>
	<path d="M19.687,10.376l-1.414,1.415C19.34,12.873,20,14.359,20,16s-0.66,3.126-1.728,4.21l1.414,1.414
		C21.116,20.179,22,18.193,22,16S21.116,11.82,19.687,10.376z"/>
</g>
</svg>
